<?xml version="1.0" encoding="UTF-8" standalone="no"?>
<!DOCTYPE svg PUBLIC "-//W3C//DTD SVG 1.1//EN" "http://www.w3.org/Graphics/SVG/1.1/DTD/svg11.dtd">
<svg width="100%" height="100%" viewBox="0 0 400 78" version="1.1" xmlns="http://www.w3.org/2000/svg" xmlns:xlink="http://www.w3.org/1999/xlink" xml:space="preserve" xmlns:serif="http://www.serif.com/" style="fill-rule:evenodd;clip-rule:evenodd;stroke-linejoin:round;stroke-miterlimit:2;">
    <g transform="matrix(1,0,0,1,-0.467187,0)">
        <g transform="matrix(1.28124,0,0,0.614293,-271.012,-138.177)">
            <path d="M255.275,269.797L253.286,272.539C252.072,268.789 250.493,265.824 248.549,263.645C246.605,261.465 244.498,260.375 242.228,260.375C238.542,260.375 235.396,263.094 232.789,268.531C230.182,273.969 228.878,280.531 228.878,288.219C228.878,295.906 230.182,302.469 232.789,307.906C235.396,313.344 238.542,316.063 242.228,316.063C244.498,316.063 246.605,314.961 248.549,312.758C250.493,310.555 252.072,307.578 253.286,303.828L255.241,306.781C253.802,311.188 251.937,314.68 249.645,317.258C247.352,319.836 244.88,321.125 242.228,321.125C240.093,321.125 238.054,320.258 236.11,318.523C234.166,316.789 232.486,314.445 231.07,311.492C229.654,308.539 228.53,305.035 227.699,300.98C226.867,296.926 226.451,292.672 226.451,288.219C226.451,283.766 226.867,279.512 227.699,275.457C228.53,271.402 229.654,267.898 231.07,264.945C232.486,261.992 234.166,259.648 236.11,257.914C238.054,256.18 240.093,255.313 242.228,255.313C244.903,255.313 247.386,256.613 249.678,259.215C251.971,261.816 253.836,265.344 255.275,269.797ZM259.286,264.031L257.263,266.773C255.6,261.711 253.448,257.691 250.808,254.715C248.167,251.738 245.307,250.25 242.228,250.25C238.924,250.25 235.879,251.949 233.092,255.348C230.306,258.746 228.097,263.352 226.468,269.164C224.839,274.977 224.024,281.328 224.024,288.219C224.024,295.109 224.839,301.461 226.468,307.273C228.097,313.086 230.306,317.691 233.092,321.09C235.879,324.488 238.924,326.188 242.228,326.188C245.307,326.188 248.173,324.688 250.825,321.688C253.477,318.688 255.634,314.633 257.297,309.523L259.286,312.406C257.398,318.219 254.954,322.813 251.954,326.188C248.954,329.563 245.712,331.25 242.228,331.25C238.497,331.25 235.048,329.328 231.879,325.484C228.71,321.641 226.204,316.414 224.361,309.805C222.518,303.195 221.597,296 221.597,288.219C221.597,280.438 222.518,273.242 224.361,266.633C226.204,260.023 228.71,254.797 231.879,250.953C235.048,247.109 238.497,245.188 242.228,245.188C245.712,245.188 248.954,246.875 251.954,250.25C254.954,253.625 257.398,258.219 259.286,264.031ZM263.332,258.406L261.309,261.148C259.196,254.68 256.46,249.559 253.1,245.785C249.74,242.012 246.116,240.125 242.228,240.125C239.104,240.125 236.115,241.391 233.261,243.922C230.407,246.453 227.951,249.863 225.895,254.152C223.839,258.441 222.204,263.563 220.99,269.516C219.776,275.469 219.17,281.703 219.17,288.219C219.17,294.734 219.776,300.969 220.99,306.922C222.204,312.875 223.839,317.996 225.895,322.285C227.951,326.574 230.407,329.984 233.261,332.516C236.115,335.047 239.104,336.313 242.228,336.313C246.139,336.313 249.768,334.414 253.117,330.617C256.466,326.82 259.196,321.688 261.309,315.219L263.264,318.242C260.927,325.367 257.91,331.004 254.213,335.152C250.516,339.301 246.521,341.375 242.228,341.375C237.621,341.375 233.362,338.996 229.452,334.238C225.541,329.48 222.445,323.023 220.164,314.867C217.883,306.711 216.742,297.828 216.742,288.219C216.742,278.609 217.883,269.727 220.164,261.57C222.445,253.414 225.541,246.957 229.452,242.199C233.362,237.441 237.621,235.063 242.228,235.063C246.543,235.063 250.555,237.16 254.263,241.355C257.971,245.551 260.994,251.234 263.332,258.406ZM267.31,252.641L265.287,255.383C262.725,247.555 259.415,241.367 255.359,236.82C251.302,232.273 246.925,230 242.228,230C238.452,230 234.84,231.535 231.39,234.605C227.94,237.676 224.968,241.813 222.473,247.016C219.979,252.219 217.995,258.418 216.523,265.613C215.051,272.809 214.315,280.344 214.315,288.219C214.315,296.094 215.051,303.629 216.523,310.824C217.995,318.02 219.979,324.219 222.473,329.422C224.968,334.625 227.94,338.762 231.39,341.832C234.84,344.902 238.452,346.438 242.228,346.438C246.925,346.438 251.308,344.141 255.376,339.547C259.443,334.953 262.758,328.742 265.321,320.914L267.276,324.008C264.489,332.445 260.893,339.137 256.488,344.082C252.083,349.027 247.33,351.5 242.228,351.5C238.115,351.5 234.188,349.824 230.446,346.473C226.704,343.121 223.479,338.621 220.771,332.973C218.063,327.324 215.905,320.598 214.298,312.793C212.691,304.988 211.888,296.797 211.888,288.219C211.888,279.641 212.691,271.449 214.298,263.645C215.905,255.84 218.063,249.113 220.771,243.465C223.479,237.816 226.704,233.316 230.446,229.965C234.188,226.613 238.115,224.938 242.228,224.938C247.352,224.938 252.117,227.422 256.522,232.391C260.927,237.359 264.523,244.109 267.31,252.641Z" style="fill:rgb(102,102,102);fill-rule:nonzero;"/>
            <path d="M284.799,230L287.226,230L287.226,346.438L284.799,346.438L284.799,230ZM279.945,230L282.372,230L282.372,346.438L279.945,346.438L279.945,230ZM275.09,230L277.517,230L277.517,346.438L275.09,346.438L275.09,230ZM270.236,230L272.663,230L272.663,346.438L270.236,346.438L270.236,230Z" style="fill:rgb(102,102,102);fill-rule:nonzero;"/>
            <path d="M310.244,288.5L324.875,288.5C327.1,288.5 328.982,287 330.522,284C332.061,281 332.831,276.734 332.831,271.203C332.831,267.125 332.022,263.457 330.404,260.199C328.786,256.941 326.943,255.313 324.875,255.313L304.042,255.313L304.042,346.438L301.614,346.438L301.614,250.25L324.875,250.25C327.617,250.25 330.033,252.371 332.123,256.613C334.213,260.855 335.258,265.719 335.258,271.203C335.258,277.953 334.247,283.367 332.224,287.445C330.202,291.523 327.752,293.563 324.875,293.563L310.244,293.563L310.244,288.5ZM310.244,298.625L324.875,298.625C328.381,298.625 331.393,296.059 333.91,290.926C336.427,285.793 337.686,279.219 337.686,271.203C337.686,264.313 336.399,258.254 333.826,253.027C331.252,247.801 328.269,245.188 324.875,245.188L299.187,245.188L299.187,346.438L296.76,346.438L296.76,240.125L324.875,240.125C327.55,240.125 330.061,241.555 332.41,244.414C334.758,247.273 336.629,251.105 338.023,255.91C339.416,260.715 340.113,265.813 340.113,271.203C340.113,280.438 338.613,288.16 335.612,294.371C332.612,300.582 329.033,303.688 324.875,303.688L310.244,303.688L310.244,298.625ZM310.244,308.75L324.875,308.75C328.022,308.75 330.943,307.133 333.64,303.898C336.337,300.664 338.495,296.152 340.113,290.363C341.731,284.574 342.54,278.188 342.54,271.203C342.54,264.875 341.737,258.934 340.13,253.379C338.523,247.824 336.36,243.383 333.64,240.055C330.921,236.727 327.999,235.063 324.875,235.063L294.333,235.063L294.333,346.438L291.905,346.438L291.905,230L324.875,230C328.404,230 331.719,231.887 334.82,235.66C337.922,239.434 340.388,244.496 342.22,250.848C344.051,257.199 344.967,263.984 344.967,271.203C344.967,279.547 344.108,286.883 342.388,293.211C340.669,299.539 338.337,304.484 335.393,308.047L341.664,346.438L339.101,346.438L333.101,310.438C332.202,311.188 331.516,311.703 331.044,311.984L336.674,346.438L334.112,346.438L328.617,313.18C328.415,313.273 327.696,313.438 326.46,313.672L331.685,346.438L329.123,346.438L323.965,313.813L321.774,313.813L326.696,346.438L324.134,346.438L319.178,313.813L310.244,313.813L310.244,308.75ZM308.896,346.438L306.469,346.438L306.469,260.375L324.875,260.375C326.381,260.375 327.679,261.441 328.769,263.574C329.859,265.707 330.404,268.25 330.404,271.203C330.404,279.359 328.561,283.438 324.875,283.438L310.244,283.438L310.244,278.375L324.875,278.375C325.842,278.375 326.6,277.848 327.151,276.793C327.701,275.738 327.977,273.875 327.977,271.203C327.977,269.563 327.679,268.191 327.083,267.09C326.488,265.988 325.752,265.438 324.875,265.438L308.896,265.438L308.896,346.438Z" style="fill:rgb(102,102,102);fill-rule:nonzero;"/>
            <path d="M390.572,269.797L388.583,272.539C387.37,268.789 385.791,265.824 383.847,263.645C381.903,261.465 379.796,260.375 377.526,260.375C373.84,260.375 370.694,263.094 368.087,268.531C365.48,273.969 364.176,280.531 364.176,288.219C364.176,295.906 365.48,302.469 368.087,307.906C370.694,313.344 373.84,316.063 377.526,316.063C379.796,316.063 381.903,314.961 383.847,312.758C385.791,310.555 387.37,307.578 388.583,303.828L390.538,306.781C389.1,311.188 387.235,314.68 384.942,317.258C382.65,319.836 380.178,321.125 377.526,321.125C375.391,321.125 373.351,320.258 371.407,318.523C369.463,316.789 367.783,314.445 366.367,311.492C364.951,308.539 363.828,305.035 362.996,300.98C362.165,296.926 361.749,292.672 361.749,288.219C361.749,283.766 362.165,279.512 362.996,275.457C363.828,271.402 364.951,267.898 366.367,264.945C367.783,261.992 369.463,259.648 371.407,257.914C373.351,256.18 375.391,255.313 377.526,255.313C380.2,255.313 382.684,256.613 384.976,259.215C387.268,261.816 389.134,265.344 390.572,269.797ZM394.584,264.031L392.561,266.773C390.898,261.711 388.746,257.691 386.105,254.715C383.465,251.738 380.605,250.25 377.526,250.25C374.222,250.25 371.177,251.949 368.39,255.348C365.603,258.746 363.395,263.352 361.766,269.164C360.136,274.977 359.322,281.328 359.322,288.219C359.322,295.109 360.136,301.461 361.766,307.273C363.395,313.086 365.603,317.691 368.39,321.09C371.177,324.488 374.222,326.188 377.526,326.188C380.605,326.188 383.47,324.688 386.122,321.688C388.774,318.688 390.932,314.633 392.595,309.523L394.584,312.406C392.696,318.219 390.252,322.813 387.252,326.188C384.251,329.563 381.009,331.25 377.526,331.25C373.795,331.25 370.345,329.328 367.176,325.484C364.007,321.641 361.502,316.414 359.659,309.805C357.816,303.195 356.894,296 356.894,288.219C356.894,280.438 357.816,273.242 359.659,266.633C361.502,260.023 364.007,254.797 367.176,250.953C370.345,247.109 373.795,245.188 377.526,245.188C381.009,245.188 384.251,246.875 387.252,250.25C390.252,253.625 392.696,258.219 394.584,264.031ZM398.629,258.406L396.606,261.148C394.494,254.68 391.758,249.559 388.398,245.785C385.038,242.012 381.414,240.125 377.526,240.125C374.402,240.125 371.413,241.391 368.559,243.922C365.704,246.453 363.249,249.863 361.193,254.152C359.136,258.441 357.501,263.563 356.288,269.516C355.074,275.469 354.467,281.703 354.467,288.219C354.467,294.734 355.074,300.969 356.288,306.922C357.501,312.875 359.136,317.996 361.193,322.285C363.249,326.574 365.704,329.984 368.559,332.516C371.413,335.047 374.402,336.313 377.526,336.313C381.436,336.313 385.066,334.414 388.415,330.617C391.763,326.82 394.494,321.688 396.606,315.219L398.562,318.242C396.224,325.367 393.207,331.004 389.51,335.152C385.813,339.301 381.818,341.375 377.526,341.375C372.919,341.375 368.66,338.996 364.749,334.238C360.839,329.48 357.743,323.023 355.462,314.867C353.18,306.711 352.04,297.828 352.04,288.219C352.04,278.609 353.18,269.727 355.462,261.57C357.743,253.414 360.839,246.957 364.749,242.199C368.66,237.441 372.919,235.063 377.526,235.063C381.841,235.063 385.853,237.16 389.561,241.355C393.269,245.551 396.292,251.234 398.629,258.406ZM402.607,252.641L400.584,255.383C398.022,247.555 394.713,241.367 390.656,236.82C386.6,232.273 382.223,230 377.526,230C373.75,230 370.137,231.535 366.688,234.605C363.238,237.676 360.266,241.813 357.771,247.016C355.276,252.219 353.293,258.418 351.821,265.613C350.349,272.809 349.613,280.344 349.613,288.219C349.613,296.094 350.349,303.629 351.821,310.824C353.293,318.02 355.276,324.219 357.771,329.422C360.266,334.625 363.238,338.762 366.688,341.832C370.137,344.902 373.75,346.438 377.526,346.438C382.223,346.438 386.605,344.141 390.673,339.547C394.741,334.953 398.056,328.742 400.618,320.914L402.573,324.008C399.787,332.445 396.191,339.137 391.786,344.082C387.381,349.027 382.627,351.5 377.526,351.5C373.413,351.5 369.486,349.824 365.744,346.473C362.002,343.121 358.777,338.621 356.068,332.973C353.36,327.324 351.203,320.598 349.596,312.793C347.989,304.988 347.185,296.797 347.185,288.219C347.185,279.641 347.989,271.449 349.596,263.645C351.203,255.84 353.36,249.113 356.068,243.465C358.777,237.816 362.002,233.316 365.744,229.965C369.486,226.613 373.413,224.938 377.526,224.938C382.65,224.938 387.414,227.422 391.819,232.391C396.224,237.359 399.82,244.109 402.607,252.641Z" style="fill:rgb(102,102,102);fill-rule:nonzero;"/>
            <path d="M444.841,295.25L444.841,230L447.268,230L447.268,295.25C447.268,302.375 445.92,308.469 443.223,313.531C440.526,318.594 437.289,321.125 433.514,321.125C429.738,321.125 426.502,318.594 423.805,313.531C421.108,308.469 419.76,302.375 419.76,295.25L419.76,230L422.187,230L422.187,295.25C422.187,300.969 423.294,305.867 425.507,309.945C427.721,314.023 430.39,316.063 433.514,316.063C436.638,316.063 439.307,314.023 441.52,309.945C443.734,305.867 444.841,300.969 444.841,295.25ZM449.695,295.25L449.695,230L452.123,230L452.123,295.25C452.123,300.125 451.628,304.777 450.639,309.207C449.65,313.637 448.324,317.469 446.661,320.703C444.998,323.938 443.02,326.504 440.728,328.402C438.436,330.301 436.031,331.25 433.514,331.25C430.997,331.25 428.592,330.301 426.3,328.402C424.007,326.504 422.029,323.938 420.366,320.703C418.703,317.469 417.377,313.637 416.388,309.207C415.4,304.777 414.905,300.125 414.905,295.25L414.905,230L417.332,230L417.332,295.25C417.332,300.828 418.057,305.996 419.507,310.754C420.956,315.512 422.923,319.273 425.406,322.039C427.89,324.805 430.592,326.188 433.514,326.188C436.435,326.188 439.138,324.805 441.621,322.039C444.105,319.273 446.071,315.512 447.521,310.754C448.971,305.996 449.695,300.828 449.695,295.25ZM454.55,295.25L454.55,230L456.977,230L456.977,295.25C456.977,301.484 456.353,307.449 455.106,313.145C453.859,318.84 452.19,323.75 450.1,327.875C448.01,332 445.515,335.281 442.616,337.719C439.717,340.156 436.683,341.375 433.514,341.375C430.345,341.375 427.311,340.156 424.412,337.719C421.513,335.281 419.018,332 416.928,327.875C414.838,323.75 413.169,318.84 411.922,313.145C410.674,307.449 410.051,301.484 410.051,295.25L410.051,230L412.478,230L412.478,295.25C412.478,302.656 413.422,309.512 415.31,315.816C417.197,322.121 419.754,327.113 422.979,330.793C426.204,334.473 429.716,336.313 433.514,336.313C437.312,336.313 440.824,334.473 444.049,330.793C447.274,327.113 449.83,322.121 451.718,315.816C453.606,309.512 454.55,302.656 454.55,295.25ZM459.404,295.25L459.404,230L461.831,230L461.831,295.25C461.831,305.375 460.562,314.762 458.022,323.41C455.482,332.059 452.038,338.902 447.689,343.941C443.341,348.98 438.615,351.5 433.514,351.5C428.412,351.5 423.687,348.98 419.338,343.941C414.989,338.902 411.545,332.059 409.006,323.41C406.466,314.762 405.196,305.375 405.196,295.25L405.196,230L407.623,230L407.623,295.25C407.623,302.141 408.309,308.75 409.68,315.078C411.051,321.406 412.894,326.855 415.208,331.426C417.523,335.996 420.282,339.641 423.485,342.359C426.687,345.078 430.03,346.438 433.514,346.438C436.997,346.438 440.34,345.078 443.543,342.359C446.746,339.641 449.504,335.996 451.819,331.426C454.134,326.855 455.977,321.406 457.348,315.078C458.719,308.75 459.404,302.141 459.404,295.25Z" style="fill:rgb(102,102,102);fill-rule:nonzero;"/>
            <path d="M480.872,230L483.299,230L483.299,346.438L480.872,346.438L480.872,230ZM476.017,230L478.444,230L478.444,346.438L476.017,346.438L476.017,230ZM471.163,230L473.59,230L473.59,346.438L471.163,346.438L471.163,230ZM466.308,230L468.736,230L468.736,346.438L466.308,346.438L466.308,230Z" style="fill:rgb(102,102,102);fill-rule:nonzero;"/>
            <path d="M486.899,235.063L486.899,230L523.308,230L523.308,235.063L486.899,235.063ZM486.899,245.188L486.899,240.125L523.308,240.125L523.308,245.188L486.899,245.188ZM486.899,255.313L486.899,250.25L523.308,250.25L523.308,255.313L513.599,255.313L513.599,346.438L511.172,346.438L511.172,255.313L508.744,255.313L508.744,346.438L506.317,346.438L506.317,255.313L503.89,255.313L503.89,346.438L501.463,346.438L501.463,255.313L499.035,255.313L499.035,346.438L496.608,346.438L496.608,255.313L486.899,255.313Z" style="fill:rgb(102,102,102);fill-rule:nonzero;"/>
        </g>
    </g>
</svg>
